<svg width="955" height="955" viewBox="0 0 955 955" fill="none" xmlns="http://www.w3.org/2000/svg">
<g filter="url(#filter0_d_982_10999)">
<path fill-rule="evenodd" clip-rule="evenodd" d="M561.484 96.2614C562.68 90.8697 559.28 85.5159 553.86 84.4545C465.026 67.0597 372.801 80.2995 292.33 122.182C208.898 165.606 143.436 237.041 107.445 323.939C71.4541 410.836 67.2358 507.637 95.5314 597.336C123.827 687.035 182.826 763.894 262.165 814.411C341.503 864.927 436.106 885.87 529.353 873.56C622.6 861.251 708.526 816.475 772.037 747.101C835.549 677.726 872.582 588.189 876.631 494.221C879.842 419.698 862.145 346.169 826.099 281.728C823.483 277.052 824.864 271.115 829.356 268.195L860.643 247.861C865.045 245 864.847 238.491 860.28 235.902L705.286 148.042C700.414 145.281 694.432 149.074 694.854 154.659L706.864 313.808L629.075 202.303C625.095 196.599 616.651 196.599 612.672 202.303L481.84 389.84C477.215 396.469 481.959 405.562 490.042 405.562H751.705C759.788 405.562 764.531 396.469 759.906 389.84L723.184 337.201L745.447 322.731C750.252 319.608 756.707 321.148 759.407 326.203C779.395 363.637 791.759 404.71 795.739 447.016L506.014 447.016L503.014 447.016L355.014 447.016V404.016H447.014C452.537 404.016 457.014 399.539 457.014 394.016V359.016C457.014 353.493 452.537 349.016 447.014 349.016H251.014V289.016H447.014C452.537 289.016 457.014 284.539 457.014 279.016V237.016C457.014 231.493 452.537 227.016 447.014 227.016H277.001C293.155 214.092 310.62 202.688 329.198 193.018C393.012 159.805 466.061 149.097 536.555 162.445C541.982 163.472 547.321 160.088 548.518 154.696L561.484 96.2614ZM190.014 335.119C186.878 341.462 183.945 347.924 181.223 354.496C168.904 384.241 161.235 415.436 158.265 447.016H299.014V404.016H241.014H200.014C194.491 404.016 190.014 399.539 190.014 394.016V359.016V335.119ZM158.363 508.016C160.507 530.046 164.943 551.931 171.688 573.312C176.647 589.033 182.785 604.262 190.014 618.883V594.016V552.016C190.014 546.493 194.491 542.016 200.014 542.016H241.014H447.014C452.537 542.016 457.014 546.493 457.014 552.016V594.016C457.014 599.539 452.537 604.016 447.014 604.016H251.014V666.016H447.014C452.537 666.016 457.014 670.493 457.014 676.016V716.016C457.014 721.539 452.537 726.016 447.014 726.016H275.795C285.107 733.54 294.872 740.566 305.055 747.05C368.554 787.482 444.27 804.244 518.901 794.391C579.682 786.367 636.578 761.109 683.06 722.016H544.014H502.014C496.491 722.016 492.014 717.539 492.014 712.016V674.016V593.016V553.016C492.014 547.493 496.491 543.016 502.014 543.016H544.014H600.014V508.016H506.039L506.014 508.016L503.014 508.016L158.363 508.016ZM768.014 610.433C782.775 578.238 792.173 543.642 795.64 508.016H660.014V543.016H717.014H758.014C763.537 543.016 768.014 547.493 768.014 553.016V593.016V610.433ZM616.925 285.066C619.704 280.993 625.711 280.993 628.49 285.066L674.722 352.823C677.893 357.47 674.565 363.769 668.94 363.769H576.475C570.85 363.769 567.522 357.47 570.693 352.823L616.925 285.066ZM554.014 603.016H707.014V664.016H554.014V603.016Z" fill="url(#paint0_linear_982_10999)" shape-rendering="crispEdges"/>
</g>
<g opacity="0.8" filter="url(#filter1_d_982_10999)">
<path fill-rule="evenodd" clip-rule="evenodd" d="M558.91 85.5656C561.613 86.13 563.315 88.804 562.717 91.4999L547.585 159.697C546.987 162.393 544.316 164.089 541.611 163.533C469.608 148.732 394.644 159.154 329.348 193.138C262.572 227.893 210.179 285.067 181.374 354.616C152.568 424.165 149.192 501.641 171.838 573.432C194.485 645.224 241.706 706.738 305.205 747.17C368.704 787.601 444.42 804.363 519.051 794.511C593.682 784.659 662.455 748.823 713.287 693.298C764.118 637.773 793.758 566.112 796.999 490.903C799.478 433.364 786.385 376.565 759.557 326.323C756.857 321.268 750.402 319.728 745.597 322.851L716.535 341.74C713.35 343.81 709.11 341.712 708.824 337.924L694.722 151.039C694.421 147.05 698.693 144.34 702.173 146.313L863.294 237.645C866.556 239.494 866.697 244.143 863.553 246.187L829.506 268.315C825.014 271.235 823.633 277.171 826.249 281.848C862.295 346.289 879.992 419.818 876.781 494.341C872.732 588.309 835.699 677.846 772.188 747.22C708.676 816.595 622.75 861.37 529.503 873.68C436.256 885.99 341.653 865.047 262.315 814.53C182.977 764.014 123.977 687.155 95.6815 597.456C67.3859 507.757 71.6042 410.956 107.595 324.059C143.586 237.161 209.048 165.726 292.48 122.302C374.432 79.6487 468.574 66.702 558.91 85.5656Z" fill="black" fill-opacity="0.02" shape-rendering="crispEdges"/>
</g>
<defs>
<filter id="filter0_d_982_10999" x="69.0015" y="71.0005" width="820" height="820.001" filterUnits="userSpaceOnUse" color-interpolation-filters="sRGB">
<feFlood flood-opacity="0" result="BackgroundImageFix"/>
<feColorMatrix in="SourceAlpha" type="matrix" values="0 0 0 0 0 0 0 0 0 0 0 0 0 0 0 0 0 0 127 0" result="hardAlpha"/>
<feOffset dx="2" dy="4"/>
<feGaussianBlur stdDeviation="5"/>
<feComposite in2="hardAlpha" operator="out"/>
<feColorMatrix type="matrix" values="0 0 0 0 0.380392 0 0 0 0 0.392157 0 0 0 0 0.419608 0 0 0 1 0"/>
<feBlend mode="normal" in2="BackgroundImageFix" result="effect1_dropShadow_982_10999"/>
<feBlend mode="normal" in="SourceGraphic" in2="effect1_dropShadow_982_10999" result="shape"/>
</filter>
<filter id="filter1_d_982_10999" x="75.1516" y="77.1201" width="808" height="808.001" filterUnits="userSpaceOnUse" color-interpolation-filters="sRGB">
<feFlood flood-opacity="0" result="BackgroundImageFix"/>
<feColorMatrix in="SourceAlpha" type="matrix" values="0 0 0 0 0 0 0 0 0 0 0 0 0 0 0 0 0 0 127 0" result="hardAlpha"/>
<feOffset dx="2" dy="4"/>
<feGaussianBlur stdDeviation="2"/>
<feComposite in2="hardAlpha" operator="out"/>
<feColorMatrix type="matrix" values="0 0 0 0 0.225 0 0 0 0 0.225 0 0 0 0 0.225 0 0 0 0.15 0"/>
<feBlend mode="normal" in2="BackgroundImageFix" result="effect1_dropShadow_982_10999"/>
<feBlend mode="normal" in="SourceGraphic" in2="effect1_dropShadow_982_10999" result="shape"/>
</filter>
<linearGradient id="paint0_linear_982_10999" x1="785.481" y1="-27.1047" x2="61.2978" y2="950.109" gradientUnits="userSpaceOnUse">
<stop stop-color="#9ED9CE"/>
<stop offset="0.231935" stop-color="#63C2AF"/>
<stop offset="0.765644" stop-color="#588BE2" stop-opacity="0.8"/>
<stop offset="1" stop-color="#4244CC"/>
</linearGradient>
</defs>
</svg>
