<svg width="2909" height="1053" viewBox="0 0 2909 1053" fill="none" xmlns="http://www.w3.org/2000/svg">
<path d="M1822 408H1926C1945.33 408 1961 423.67 1961 443V547H1822V408Z" fill="#47D5B8"/>
<path d="M1591 140H1695C1714.33 140 1730 155.67 1730 175V390H1591V140Z" fill="white"/>
<path d="M1591 309H2156C2175.33 309 2191 324.67 2191 344V431H1626C1606.67 431 1591 415.33 1591 396V309Z" fill="white"/>
<path d="M1432 502H2197C2216.33 502 2232 517.67 2232 537V624H1467C1447.67 624 1432 608.33 1432 589V502Z" fill="#47D5B8"/>
<path d="M1591 79H2156C2175.33 79 2191 94.67 2191 114V201H1626C1606.67 201 1591 185.33 1591 166V79Z" fill="white"/>
<path d="M1591 721H1695C1714.33 721 1730 736.67 1730 756V971H1591V721Z" fill="white"/>
<path d="M1591 890H2156C2175.33 890 2191 905.67 2191 925V1012H1626C1606.67 1012 1591 996.33 1591 977V890Z" fill="white"/>
<path d="M1591 660H2156C2175.33 660 2191 675.67 2191 695V782H1626C1606.67 782 1591 766.33 1591 747V660Z" fill="white"/>
<path d="M779 79H883C902.33 79 918 94.67 918 114V501H779V79Z" fill="#47D5B8"/>
<path d="M1051 162H1397C1416.33 162 1432 177.67 1432 197V284H1086C1066.67 284 1051 268.33 1051 249V162Z" fill="#47D5B8"/>
<path d="M1051 316H1397C1416.33 316 1432 331.67 1432 351V438H1086C1066.67 438 1051 422.33 1051 403V316Z" fill="#47D5B8"/>
<path d="M1376 40H1480C1499.33 40 1515 55.67 1515 75V754H1411C1391.67 754 1376 738.33 1376 719V40Z" fill="#47D5B8"/>
<path d="M779 501H1439C1458.33 501 1474 516.67 1474 536V623H814C794.67 623 779 607.33 779 588V501Z" fill="#47D5B8"/>
<path d="M779 689H883C902.33 689 918 704.67 918 724V951H779V689Z" fill="white"/>
<path d="M779 890H1480C1499.33 890 1515 905.67 1515 925V1012H814C794.67 1012 779 996.33 779 977V890Z" fill="white"/>
<path d="M191 40H295C314.33 40 330 55.67 330 75V179H191V40Z" fill="white"/>
<path d="M152.262 211L62.6501 523.402C57.3203 541.982 68.4512 559.653 87.5116 562.87L191.047 580.344L290.309 234.299L152.262 211Z" fill="white"/>
<path d="M369.048 211L458.659 523.402C463.989 541.982 452.858 559.653 433.798 562.87L330.262 580.344L231 234.299L369.048 211Z" fill="white"/>
<path d="M0 162H486C505.33 162 521 177.67 521 197V284H35C15.67 284 0 268.33 0 249V162Z" fill="white"/>
<path d="M597 79H701C720.33 79 736 94.67 736 114V624H632C612.67 624 597 608.33 597 589V79Z" fill="white"/>
<path d="M466 329H701C720.33 329 736 344.67 736 364V451H501C481.67 451 466 435.33 466 416V329Z" fill="white"/>
<path d="M697 838.5C697 956.965 583.728 1053 444 1053C304.272 1053 191 956.965 191 838.5C191 720.035 304.272 624 444 624C583.728 624 697 720.035 697 838.5ZM329.315 838.5C329.315 892.2 380.661 935.733 444 935.733C507.339 935.733 558.685 892.2 558.685 838.5C558.685 784.8 507.339 741.267 444 741.267C380.661 741.267 329.315 784.8 329.315 838.5Z" fill="white"/>
<path d="M2642 702H2538C2518.67 702 2503 686.33 2503 667V563H2642V702Z" fill="#47D5B8"/>
<path d="M2072 502H2874C2893.33 502 2909 517.67 2909 537V624H2107C2087.67 624 2072 608.33 2072 589V502Z" fill="#47D5B8"/>
<path d="M2272 721H2380C2399.33 721 2415 736.67 2415 756V971H2272V721Z" fill="white"/>
<path d="M2733 721H2841C2860.33 721 2876 736.67 2876 756V971H2733V721Z" fill="white"/>
<path d="M2272 890H2841C2860.33 890 2876 905.67 2876 925V1012H2307C2287.67 1012 2272 996.33 2272 977V890Z" fill="white"/>
<path d="M2272 660H2841C2860.33 660 2876 675.67 2876 695V782H2307C2287.67 782 2272 766.33 2272 747V660Z" fill="white"/>
<path d="M2530.88 46.3069C2552.76 21.6687 2591.24 21.6687 2613.12 46.3069L2874.37 340.479C2905.88 375.954 2880.69 432 2833.25 432H2310.75C2263.31 432 2238.12 375.954 2269.63 340.479L2530.88 46.3069Z" fill="#47D5B8"/>
<path d="M2551.12 182.472C2561.92 169.295 2582.08 169.295 2592.88 182.472L2696.92 309.383C2711.36 327.008 2698.82 353.5 2676.04 353.5H2467.97C2445.18 353.5 2432.64 327.008 2447.08 309.383L2551.12 182.472Z" fill="#588BE2"/>
</svg>
